<svg width="50" height="50" viewBox="0 0 50 50" fill="none" xmlns="http://www.w3.org/2000/svg">
<g clip-path="url(#clip0_202_15)">
<path d="M24.972 37.595C18.0117 37.595 12.3489 31.9328 12.3489 24.972C12.3489 18.0118 18.0117 12.3489 24.972 12.3489C31.9328 12.3489 37.595 18.0118 37.595 24.972C37.595 31.9328 31.9328 37.595 24.972 37.595Z" fill="#F4B12C"/>
<path d="M24.972 9.90995C24.0626 9.90995 23.3255 9.17288 23.3255 8.26347V1.92121C23.3255 1.0118 24.0626 0.274727 24.972 0.274727C25.8814 0.274727 26.6185 1.0118 26.6185 1.92121V8.26347C26.6185 9.17233 25.8814 9.90995 24.972 9.90995Z" fill="#F4B12C"/>
<path d="M24.972 49.6693C24.0626 49.6693 23.3255 48.9322 23.3255 48.0228V41.6805C23.3255 40.7711 24.0626 40.034 24.972 40.034C25.8814 40.034 26.6185 40.7711 26.6185 41.6805V48.0228C26.6185 48.9322 25.8814 49.6693 24.972 49.6693Z" fill="#F4B12C"/>
<path d="M8.26346 26.6185H1.9212C1.0118 26.6185 0.274719 25.8814 0.274719 24.972C0.274719 24.0626 1.0118 23.3255 1.9212 23.3255H8.26346C9.17287 23.3255 9.90995 24.0626 9.90995 24.972C9.90995 25.8814 9.17232 26.6185 8.26346 26.6185Z" fill="#F4B12C"/>
<path d="M48.0228 26.6185H41.6805C40.7711 26.6185 40.034 25.8814 40.034 24.972C40.034 24.0626 40.7711 23.3255 41.6805 23.3255H48.0228C48.9322 23.3255 49.6693 24.0626 49.6693 24.972C49.6693 25.8814 48.9322 26.6185 48.0228 26.6185Z" fill="#F4B12C"/>
<path d="M36.7866 14.8039C36.3651 14.8039 35.9442 14.643 35.6226 14.322C34.9793 13.6788 34.9793 12.6365 35.6226 11.9933L40.107 7.50883C40.7503 6.8656 41.7919 6.86615 42.4352 7.50883C43.0784 8.15206 43.0784 9.19428 42.4352 9.83751L37.9507 14.322C37.6296 14.643 37.2081 14.8039 36.7866 14.8039Z" fill="#F4B12C"/>
<path d="M8.67291 42.9176C8.25141 42.9176 7.82991 42.7568 7.50885 42.4352C6.86562 41.7925 6.86562 40.7497 7.50885 40.107L11.9933 35.6225C12.636 34.9793 13.6788 34.9793 14.3215 35.6225C14.9647 36.2652 14.9647 37.308 14.3215 37.9507L9.83698 42.4352C9.51536 42.7568 9.09386 42.9176 8.67291 42.9176Z" fill="#F4B12C"/>
<path d="M13.1574 14.8039C12.7359 14.8039 12.3144 14.643 11.9933 14.322L7.50885 9.83751C6.86562 9.19428 6.86562 8.15206 7.50885 7.50883C8.15207 6.8656 9.19485 6.86615 9.83753 7.50883L14.322 11.9933C14.9652 12.6365 14.9652 13.6788 14.322 14.322C13.9998 14.643 13.5783 14.8039 13.1574 14.8039Z" fill="#F4B12C"/>
<path d="M41.2711 42.9176C40.8496 42.9176 40.4286 42.7568 40.107 42.4352L35.6226 37.9507C34.9793 37.308 34.9793 36.2652 35.6226 35.6225C36.2658 34.9793 37.3075 34.9793 37.9507 35.6225L42.4352 40.107C43.0784 40.7497 43.0784 41.7925 42.4352 42.4352C42.1135 42.7568 41.6926 42.9176 41.2711 42.9176Z" fill="#F4B12C"/>
</g>
<defs>
<clipPath id="clip0_202_15">
<rect width="50" height="50" fill="white"/>
</clipPath>
</defs>
</svg>
