<svg width="50" height="50" viewBox="0 0 50 50" fill="none" xmlns="http://www.w3.org/2000/svg">
<path d="M25 50C38.8071 50 50 38.8071 50 25C50 11.1929 38.8071 0 25 0C11.1929 0 0 11.1929 0 25C0 38.8071 11.1929 50 25 50Z" fill="#27536B"/>
<path d="M21.5612 28.4389C16.4751 23.3528 15.8345 15.5045 19.639 9.72223C17.7201 10.4961 15.9212 11.66 14.3656 13.2156C8.17451 19.4067 8.17451 29.4439 14.3656 35.6345C20.5567 41.825 30.594 41.8256 36.7845 35.6345C38.3401 34.0789 39.504 32.2806 40.2778 30.3611C34.4956 34.1661 26.6473 33.5256 21.5612 28.4389Z" fill="#FCD57E"/>
<path d="M30.6766 22.8367C30.075 21.0306 28.6466 19.6022 26.8405 19C26.5394 18.8995 26.5394 18.4811 26.8405 18.3806C28.6466 17.7789 30.075 16.3506 30.6766 14.5445C30.7772 14.2433 31.1955 14.2433 31.2961 14.5445C31.8977 16.3506 33.3261 17.7789 35.1327 18.3806C35.4339 18.4806 35.4339 18.8995 35.1327 19C33.3266 19.6017 31.8983 21.0306 31.2961 22.8367C31.1961 23.1378 30.7772 23.1378 30.6766 22.8367Z" fill="#EAEFF4"/>
<path d="M43.4249 23.7111C43.7824 23.7111 44.0722 23.4214 44.0722 23.0639C44.0722 22.7065 43.7824 22.4167 43.4249 22.4167C43.0675 22.4167 42.7777 22.7065 42.7777 23.0639C42.7777 23.4214 43.0675 23.7111 43.4249 23.7111Z" fill="#EAEFF4"/>
<path d="M22.0361 46.3722C22.3935 46.3722 22.6833 46.0824 22.6833 45.725C22.6833 45.3675 22.3935 45.0778 22.0361 45.0778C21.6786 45.0778 21.3889 45.3675 21.3889 45.725C21.3889 46.0824 21.6786 46.3722 22.0361 46.3722Z" fill="#EAEFF4"/>
<path d="M25.0027 7.67222C25.3601 7.67222 25.6499 7.38245 25.6499 7.025C25.6499 6.66755 25.3601 6.37777 25.0027 6.37777C24.6452 6.37777 24.3555 6.66755 24.3555 7.025C24.3555 7.38245 24.6452 7.67222 25.0027 7.67222Z" fill="#EAEFF4"/>
<path d="M31.6361 29.0333C31.9936 29.0333 32.2833 28.7436 32.2833 28.3861C32.2833 28.0287 31.9936 27.7389 31.6361 27.7389C31.2787 27.7389 30.9889 28.0287 30.9889 28.3861C30.9889 28.7436 31.2787 29.0333 31.6361 29.0333Z" fill="#EAEFF4"/>
<path d="M5.05274 19.3389C5.41019 19.3389 5.69996 19.0491 5.69996 18.6917C5.69996 18.3342 5.41019 18.0444 5.05274 18.0444C4.69529 18.0444 4.40552 18.3342 4.40552 18.6917C4.40552 19.0491 4.69529 19.3389 5.05274 19.3389Z" fill="#EAEFF4"/>
<path d="M39.0194 42.9833C39.3769 42.9833 39.6666 42.6936 39.6666 42.3361C39.6666 41.9787 39.3769 41.6889 39.0194 41.6889C38.662 41.6889 38.3722 41.9787 38.3722 42.3361C38.3722 42.6936 38.662 42.9833 39.0194 42.9833Z" fill="#EAEFF4"/>
<path d="M38.375 8.96667C38.7325 8.96667 39.0222 8.6769 39.0222 8.31945C39.0222 7.962 38.7325 7.67222 38.375 7.67222C38.0176 7.67222 37.7278 7.962 37.7278 8.31945C37.7278 8.6769 38.0176 8.96667 38.375 8.96667Z" fill="#EAEFF4"/>
<path d="M9.07496 33.9167C9.43241 33.9167 9.72218 33.6269 9.72218 33.2695C9.72218 32.912 9.43241 32.6222 9.07496 32.6222C8.71751 32.6222 8.42773 32.912 8.42773 33.2695C8.42773 33.6269 8.71751 33.9167 9.07496 33.9167Z" fill="#EAEFF4"/>
</svg>
